<?xml version="1.0" encoding="utf-8"?>
<!-- Generator: Adobe Illustrator 21.1.0, SVG Export Plug-In . SVG Version: 6.00 Build 0)  -->
<svg version="1.1" id="Layer_1" xmlns="http://www.w3.org/2000/svg" xmlns:xlink="http://www.w3.org/1999/xlink" x="0px" y="0px"
	 viewBox="0 0 1024 1024" enable-background="new 0 0 1024 1024" xml:space="preserve">
<title></title>
<g id="icomoon-ignore">
</g>
<g>
	<path fill="#CAF893" d="M499.1,392.1c37.9,104.1,14.4,215.6-52,294.8c-101.8-18-191.4-88.3-229.3-192.4s-14.4-215.6,52-294.8
		C371.5,217.7,461.2,288,499.1,392.1L499.1,392.1z M817.2,451.2c-70.1-18.7-148.1-0.6-203.1,54.4s-73.2,133-54.4,203.1
		c70.1,18.7,148.1,0.6,203.1-54.4C817.8,599.3,835.9,521.4,817.2,451.2L817.2,451.2z"/>
	<path fill="#AEEF66" d="M762.7,654.4c-48,48-113.4,67.9-175.8,59.8c44.4-5.8,87.4-25.7,121.5-59.8c49.8-49.8,69.4-118.5,58.8-183.1
		c-1.1-6.7-5-24.8-5.2-27.1c18.6-0.1,37.1,2.3,55.2,7.1C835.9,521.4,817.8,599.3,762.7,654.4L762.7,654.4z M269.8,199.7
		c-3.2,3.8-6.3,7.7-9.3,11.7c82.6,28.3,152.1,92.3,184.3,180.8c30,82.5,21.5,169.6-16.3,241.6l21.4,49.9
		c64.3-79,86.7-188.9,49.3-291.5C461.2,288,371.5,217.7,269.8,199.7L269.8,199.7z"/>
	<path fill="#3E5E0D" d="M777.1,579.2c-0.3,5.4-4.8,9.7-10.2,9.7c-0.2,0-0.3,0-0.5,0l-69.2-3.4l-42,42l55.8,2.7
		c5.6,0.3,10,5,9.7,10.7c-0.3,5.4-4.8,9.7-10.2,9.7c-0.2,0-0.3,0-0.5,0l-74.3-3.6l-142,142v25.2c0,5.6-4.6,10.2-10.2,10.2
		s-10.2-4.6-10.2-10.2v-25.8L392,564.6l-97.7-39.9c-5.2-2.1-7.7-8.1-5.6-13.3s8.1-7.7,13.3-5.6l80.6,32.9l-32.1-88.1l-91.1-37.2
		c-5.2-2.1-7.7-8.1-5.6-13.3c2.1-5.2,8.1-7.7,13.3-5.6l73.9,30.2l-46.3-127.2c-1.9-5.3,0.8-11.1,6.1-13.1c5.3-1.9,11.1,0.8,13.1,6.1
		l46.3,127.2l37.2-70.7c2.6-5,8.8-6.9,13.8-4.3s6.9,8.8,4.3,13.8l-45.8,87l32.1,88.1l40.6-77c2.6-5,8.8-6.9,13.8-4.3
		s6.9,8.8,4.3,13.8l-49.2,93.3l76.1,209.1l134.1-134.1l-3.6-74.3c-0.3-5.6,4.1-10.4,9.7-10.7c5.6-0.3,10.4,4.1,10.7,9.7l2.7,55.8
		l42-42l-3.4-69.2c-0.3-5.6,4.1-10.4,9.7-10.7c5.6-0.3,10.4,4.1,10.7,9.7l2.5,50.7l58.1-58.1c4-4,10.4-4,14.4,0s4,10.4,0,14.4
		l-58.1,58.1l50.7,2.5C773,568.8,777.4,573.6,777.1,579.2L777.1,579.2z"/>
</g>
<g>
	<circle fill="none" stroke="#F6F7F5" stroke-width="25" stroke-miterlimit="10" cx="512" cy="511" r="499.7"/>
</g>
</svg>
