<svg id="Layer_1" data-name="Layer 1" xmlns="http://www.w3.org/2000/svg" viewBox="0 0 1024 1024"><defs><style>.cls-1{fill:#5a5d6f;}.cls-2{fill:#abb9d3;}.cls-3{fill:#6f7588;}.cls-4{fill:#445;}.cls-5{fill:#e1eaf6;}.cls-6{fill:#929cb4;}.cls-7{fill:#d4deed;}.cls-8{fill:#e0e0e0;}.cls-9{fill:#bdbdbd;}.cls-10{fill:#e6e6e6;}</style></defs><title>Artboard 1</title><path class="cls-1" d="M94.3,829.8H69.1A16.09,16.09,0,0,1,53,813.7V776.9h70.6l-14,41.9A16.13,16.13,0,0,1,94.3,829.8Z"/><path class="cls-1" d="M929.7,829.8h25.2A16.09,16.09,0,0,0,971,813.7V776.9H900.4l14,41.9A16.13,16.13,0,0,0,929.7,829.8Z"/><path class="cls-2" d="M971,794.5H53a53,53,0,0,1-53-53V247.2a53,53,0,0,1,53-53H971a53,53,0,0,1,53,53V741.5A53,53,0,0,1,971,794.5Z"/><path class="cls-3" d="M812.1,794.5H53a53,53,0,0,1-53-53V247.2a53,53,0,0,1,53-53H812.2a17.67,17.67,0,0,1,17.7,17.7v565A17.8,17.8,0,0,1,812.1,794.5Z"/><path class="cls-2" d="M759.2,741.5h0a17.67,17.67,0,0,0,17.7-17.7v-459a17.67,17.67,0,0,0-17.7-17.7h0a17.67,17.67,0,0,0-17.7,17.7v459A17.67,17.67,0,0,0,759.2,741.5Z"/><path class="cls-4" d="M70.6,741.5H670.9a17.67,17.67,0,0,0,17.7-17.7v-459a17.67,17.67,0,0,0-17.7-17.7H70.6a17.67,17.67,0,0,0-17.7,17.7v459A17.8,17.8,0,0,0,70.6,741.5Z"/><path class="cls-5" d="M971,556.1A44.1,44.1,0,1,1,926.9,512,44.11,44.11,0,0,1,971,556.1Z"/><path class="cls-6" d="M971,300.1H882.7A17.67,17.67,0,0,1,865,282.4h0a17.67,17.67,0,0,1,17.7-17.7H971a17.67,17.67,0,0,1,17.7,17.7h0A17.67,17.67,0,0,1,971,300.1Z"/><path class="cls-3" d="M882.8,300.1h0a17.67,17.67,0,0,1-17.7-17.7h0a17.67,17.67,0,0,1,17.7-17.7h0a17.67,17.67,0,0,1,17.7,17.7h0A17.8,17.8,0,0,1,882.8,300.1Z"/><path class="cls-3" d="M971,300.1h0a17.67,17.67,0,0,1-17.7-17.7h0A17.67,17.67,0,0,1,971,264.7h0a17.67,17.67,0,0,1,17.7,17.7h0A17.67,17.67,0,0,1,971,300.1Z"/><path class="cls-6" d="M971,370.8H882.7A17.67,17.67,0,0,1,865,353.1h0a17.67,17.67,0,0,1,17.7-17.7H971a17.67,17.67,0,0,1,17.7,17.7h0A17.67,17.67,0,0,1,971,370.8Z"/><path class="cls-3" d="M882.8,370.8h0a17.67,17.67,0,0,1-17.7-17.7h0a17.67,17.67,0,0,1,17.7-17.7h0a17.67,17.67,0,0,1,17.7,17.7h0A17.8,17.8,0,0,1,882.8,370.8Z"/><path class="cls-3" d="M971,370.8h0a17.67,17.67,0,0,1-17.7-17.7h0A17.67,17.67,0,0,1,971,335.4h0a17.67,17.67,0,0,1,17.7,17.7h0A17.67,17.67,0,0,1,971,370.8Z"/><path class="cls-6" d="M971,441.4H882.7A17.67,17.67,0,0,1,865,423.7h0A17.67,17.67,0,0,1,882.7,406H971a17.67,17.67,0,0,1,17.7,17.7h0A17.67,17.67,0,0,1,971,441.4Z"/><path class="cls-3" d="M882.8,441.4h0a17.67,17.67,0,0,1-17.7-17.7h0A17.67,17.67,0,0,1,882.8,406h0a17.67,17.67,0,0,1,17.7,17.7h0A17.8,17.8,0,0,1,882.8,441.4Z"/><path class="cls-3" d="M971,441.4h0a17.67,17.67,0,0,1-17.7-17.7h0A17.67,17.67,0,0,1,971,406h0a17.67,17.67,0,0,1,17.7,17.7h0A17.67,17.67,0,0,1,971,441.4Z"/><path class="cls-7" d="M970.6,560a29.14,29.14,0,0,0-43.7,25.5,28.88,28.88,0,0,0,3.9,14.3A43.64,43.64,0,0,0,970.6,560Z"/><path class="cls-5" d="M971,679.7a44.1,44.1,0,1,1-44.1-44.1A44.11,44.11,0,0,1,971,679.7Z"/><path class="cls-7" d="M923,723.5a29.14,29.14,0,0,0-25.5-43.7,28.88,28.88,0,0,0-14.3,3.9A43.81,43.81,0,0,0,923,723.5Z"/><path class="cls-8" d="M621.9,545.2l-48.2,78.4c-7.5,11.7-24.7,21.8-38.6,21.8H206.8c-13.8,0-31-10.1-38.6-21.8l-48.2-78,501.9-.4Z"/><path class="cls-9" d="M626.6,528c4.6,0,8.4,4.6,8.4,9.2,0,2.5-.8,3.8-2.5,5.5a7.85,7.85,0,0,1-5.9,2.1H115c-4.6,0-8.4-2.9-8.4-7.5,0-2.1.8-5,2.5-6.3a8.77,8.77,0,0,1,5.9-2.9H626.6Z"/><path class="cls-10" d="M370.28,489.75a8.91,8.91,0,0,1-6.32-2.62,62.5,62.5,0,0,1,0-88.44,44.64,44.64,0,0,0,0-63.18,8.93,8.93,0,1,1,12.63-12.63,62.5,62.5,0,0,1,0,88.44,44.64,44.64,0,0,0,0,63.18,8.93,8.93,0,0,1-6.32,15.25Z"/><path class="cls-10" d="M481,489.75a8.91,8.91,0,0,1-6.32-2.62,62.5,62.5,0,0,1,0-88.44,44.64,44.64,0,0,0,0-63.18,8.93,8.93,0,1,1,12.63-12.63,62.5,62.5,0,0,1,0,88.44,44.64,44.64,0,0,0,0,63.18A8.93,8.93,0,0,1,481,489.75Z"/><path class="cls-10" d="M260.91,489.75a8.91,8.91,0,0,1-6.32-2.62,62.5,62.5,0,0,1,0-88.44,44.64,44.64,0,0,0,0-63.18,8.93,8.93,0,1,1,12.63-12.63,62.5,62.5,0,0,1,0,88.44,44.64,44.64,0,0,0,0,63.18,8.93,8.93,0,0,1-6.32,15.25Z"/></svg>