<?xml version="1.0" encoding="utf-8"?>
<!-- Generator: Adobe Illustrator 21.1.0, SVG Export Plug-In . SVG Version: 6.00 Build 0)  -->
<svg version="1.1" id="Layer_1" xmlns="http://www.w3.org/2000/svg" xmlns:xlink="http://www.w3.org/1999/xlink" x="0px" y="0px"
	 viewBox="0 0 1024 1024" enable-background="new 0 0 1024 1024" xml:space="preserve">
<g>
	<path fill="#CCD1D9" d="M741.8,960h-417l42.7-213l331.7-0.2L741.8,960z"/>
	<path fill="#E6E9ED" d="M339.6,938.7c-12.9,0-23.3,9.5-23.3,21.3c0,11.7,10.4,21.3,23.3,21.3H729c11.8,0,21.3-9.5,21.3-21.3l0,0
		c0-11.8-9.5-21.3-21.3-21.3H339.6z"/>
</g>
<path fill="#F5F7FA" d="M1024,768c0,11.8-9.6,21.4-21.3,21.4H21.3C9.6,789.4,0,779.8,0,768V85.3C0,73.6,9.6,64,21.3,64h981.4
	c11.7,0,21.3,9.6,21.3,21.3V768z"/>
<path fill="#E6E9ED" d="M21.3,789.4h981.4c11.7,0,21.3-9.6,21.3-21.4V661.4H0V768C0,779.8,9.6,789.4,21.3,789.4z"/>
<path fill="#A0D468" d="M85.3,490.7H512v172.7H85.3V490.7z M554.7,490.7h426.6v172.7H554.7V490.7z"/>
<path fill="#434A54" d="M558.6,728.8c0,11.7-9.5,21.3-21.3,21.3s-21.3-9.6-21.3-21.3c0-11.8,9.5-21.4,21.3-21.4
	S558.6,717,558.6,728.8z"/>
<path fill="#48CFAD" d="M85.3,149.3h853.4V448H85.3V149.3z"/>
<path fill="#434A54" d="M789.3,320H234.7c-11.8,0-21.4-9.6-21.4-21.3s9.6-21.4,21.4-21.4h554.6c11.8,0,21.4,9.6,21.4,21.4
	C810.7,310.4,801.1,320,789.3,320z"/>
</svg>
