<?xml version="1.0" encoding="utf-8"?>
<!-- Generator: Adobe Illustrator 21.1.0, SVG Export Plug-In . SVG Version: 6.00 Build 0)  -->
<svg version="1.1" id="Layer_1" xmlns="http://www.w3.org/2000/svg" xmlns:xlink="http://www.w3.org/1999/xlink" x="0px" y="0px"
	 viewBox="0 0 1024 1024" enable-background="new 0 0 1024 1024" xml:space="preserve">
<g>
	<path fill="#0F8433" d="M687.5,111.9c-10.2-9.1-23.8-10.2-35.2-5.7c3.4-14.8-2.3-30.7-15.9-37.5c-14.8-7.9-32.9-4.5-43.2,7.9
		c0-14.8-10.2-29.5-26.1-32.9c-7.9-2.3-15.9-1.1-21.6,2.3c-7.9-7.9-17-12.5-27.3-14.8c-17-2.3-31.8,5.7-40.9,18.2
		c-6.8-18.2-25-29.5-44.3-27.3c-21.6,2.3-37.5,19.3-38.6,39.7C383.1,46,362.7,39.2,343.4,46c-22.7,7.9-34.1,32.9-25,55.6L374,251.6
		c-23.8,19.3-39.7,50-39.7,85.2c0,59,45.4,106.7,101.1,106.7s101.1-47.7,101.1-106.7c0-7.9-1.1-17-2.3-25
		c11.4,2.3,22.7-2.3,30.7-11.4l124.9-140.8C702.2,145.9,701.1,124.4,687.5,111.9L687.5,111.9z"/>
	<path fill="#026824" d="M656.8,139.1c-9.1-7.9-21.6-10.2-31.8-5.7c3.4-13.6-2.3-27.3-14.8-34.1c-13.6-7.9-30.7-4.5-39.7,6.8
		c0-13.6-9.1-27.3-23.8-30.7c-6.8-2.3-13.6-1.1-20.4,2.3c-5.7-6.8-14.8-11.4-25-12.5c-14.8-2.3-29.5,5.7-37.5,17
		c-5.7-15.9-22.7-27.3-40.9-25c-19.3,2.3-34.1,17-36.3,36.3C376.3,78.9,357,72.1,340,78.9c-20.4,7.9-30.7,30.7-22.7,51.1l51.1,137.4
		C345.6,285.6,332,314,332,345.8c0,54.5,42,97.7,93.1,97.7s93.1-44.3,93.1-97.7c0-7.9-1.1-14.8-2.3-22.7
		c10.2,1.1,21.6-1.1,28.4-10.2l114.7-129.5C670.4,169.8,669.3,150.5,656.8,139.1L656.8,139.1z"/>
	<path fill="#003F12" d="M606.8,183.4c-7.9-6.8-18.2-7.9-27.3-4.5c2.3-11.4-2.3-23.8-12.5-29.5c-11.4-6.8-26.1-3.4-34.1,6.8
		c0-12.5-7.9-22.7-20.4-26.1c-5.7-1.1-12.5-1.1-17,2.3c-5.7-5.7-12.5-10.2-20.4-11.4c-13.6-1.1-25,4.5-31.8,14.8
		c-5.7-13.6-19.3-23.8-35.2-21.6c-17,1.1-29.5,14.8-30.7,30.7c-9.1-12.5-25-18.2-39.7-12.5c-17,6.8-26.1,26.1-20.4,44.3l44.3,118.1
		c-19.3,14.8-31.8,39.7-31.8,67c0,46.6,35.2,84,79.5,84s79.5-37.5,79.5-84c0-6.8-1.1-13.6-2.3-19.3c9.1,1.1,18.2-1.1,23.8-9.1
		L608,223.2C619.3,209.5,618.2,192.5,606.8,183.4L606.8,183.4z"/>
	<path fill="#00A057" d="M394.5,194.8c0,74.6-60.5,135.1-135.1,135.1s-135.1-60.5-135.1-135.1c0-74.6,60.5-135.1,135.1-135.1
		S394.5,120.1,394.5,194.8z"/>
	<path fill="#008730" d="M259.3,59.6c74.9,0,135.1,60.2,135.1,135.1s-60.2,135.1-135.1,135.1V59.6z"/>
	<path fill="#E9F98C" d="M367.2,194.8c0,59.6-48.3,107.9-107.9,107.9s-107.9-48.3-107.9-107.9S199.8,86.9,259.3,86.9
		S367.2,135.2,367.2,194.8L367.2,194.8z"/>
	<path fill="#BEE874" d="M335.4,118.7c42,42,42,111.3,0,153.3s-111.3,42-153.3,0L335.4,118.7z"/>
	<path fill="#80C612" d="M242.3,131.2L242.3,131.2l17,39.7l17-39.7c1.1-2.3,1.1-4.5,1.1-7.9c0-10.2-7.9-18.2-18.2-18.2
		c-10.2,0-18.2,7.9-18.2,18.2C241.2,126.6,241.2,128.9,242.3,131.2L242.3,131.2z"/>
	<path fill="#80C612" d="M204.8,164.1L204.8,164.1l39.7,15.9l-15.9-39.7c-1.1-2.3-2.3-4.5-4.5-6.8c-6.8-6.8-18.2-6.8-26.1,0
		c-6.8,6.8-6.8,18.2,0,26.1C200.3,161.8,202.6,163,204.8,164.1L204.8,164.1z"/>
	<path fill="#80C612" d="M295.7,138L295.7,138l-15.9,39.7l39.7-15.9c2.3-1.1,4.5-2.3,6.8-4.5c6.8-6.8,6.8-18.2,0-26.1
		c-6.8-6.8-18.2-6.8-26.1,0C298,133.5,296.8,135.7,295.7,138L295.7,138z"/>
	<path fill="#80C612" d="M317.3,228.8L317.3,228.8l-39.7-15.9l15.9,39.7c1.1,2.3,2.3,4.5,4.5,6.8c6.8,6.8,18.2,6.8,26.1,0
		c6.8-6.8,6.8-18.2,0-26.1C321.8,231.1,319.5,230,317.3,228.8L317.3,228.8z"/>
	<path fill="#80C612" d="M276.4,258.4L276.4,258.4l-17-39.7l-17,39.7c-1.1,2.3-1.1,4.5-1.1,7.9c0,10.2,7.9,18.2,18.2,18.2
		c10.2,0,18.2-7.9,18.2-18.2C277.5,262.9,276.4,260.6,276.4,258.4L276.4,258.4z"/>
	<path fill="#80C612" d="M322.9,177.7L322.9,177.7l-39.7,17l39.7,17c2.3,1.1,4.5,1.1,7.9,1.1c10.2,0,18.2-7.9,18.2-18.2
		c0-10.2-7.9-18.2-18.2-18.2C327.5,176.6,325.2,176.6,322.9,177.7L322.9,177.7z"/>
	<path fill="#80C612" d="M195.8,211.8L195.8,211.8l39.7-17l-39.7-17c-2.3-1.1-4.5-1.1-7.9-1.1c-10.2,0-18.2,7.9-18.2,18.2
		c0,10.2,7.9,18.2,18.2,18.2C191.2,212.9,193.5,212.9,195.8,211.8L195.8,211.8z"/>
	<path fill="#80C612" d="M226.4,251.6L226.4,251.6l15.9-39.7l-39.7,15.9c-2.3,1.1-4.5,2.3-6.8,4.5c-6.8,6.8-6.8,18.2,0,26.1
		c6.8,6.8,18.2,6.8,26.1,0C224.1,256.1,225.3,253.8,226.4,251.6L226.4,251.6z"/>
	<path fill="#82C60A" d="M528.5,86.9L528.5,86.9L528.5,86.9L528.5,86.9c-4.5,65.9-60.2,98.8-32.9,165.8
		c15.9,38.6,59.1,48.8,109,57.9l0,0h1.1c34.1-34.1,61.3-71.5,51.1-112.4C636.4,128.9,571.6,136.9,528.5,86.9L528.5,86.9z"/>
	<path fill="#5EA304" d="M604.6,310.6L604.6,310.6L604.6,310.6L604.6,310.6c34.1-34.1,62.5-72.7,51.1-112.4
		c-19.3-69.3-84-61.3-127.2-111.3l0,0h-1.1L604.6,310.6z"/>
	<path fill="#74B208" d="M562.5,185.7l-44.3-10.2l48.8,23.8l22.7-47.7L562.5,185.7z"/>
	<path fill="#74B208" d="M587.5,260.6l-43.2-10.2l47.7,23.8l23.8-47.7L587.5,260.6z"/>
	<path fill="#74B208" d="M575,223.2l-50-12.5l54.5,27.3l27.3-54.5L575,223.2z"/>
	<path fill="#82C60A" d="M707.9,82.4L707.9,82.4L707.9,82.4L707.9,82.4c-22.7,43.2-73.8,48.8-77.2,103.3
		c-2.3,31.8,23.8,56.8,54.5,79.5l0,0l0,0l0,0c35.2-22.7,65.9-30.7,71.5-61.3C768.1,150.5,719.3,131.2,707.9,82.4L707.9,82.4z"/>
	<path fill="#5EA304" d="M685.2,265.2L685.2,265.2L685.2,265.2L685.2,265.2c36.3-22.7,65.9-30.7,71.5-61.3
		c10.2-53.4-37.5-72.7-48.8-121.5l0,0l0,0v1.1L685.2,265.2z"/>
	<path fill="#74B208" d="M698.8,161.8l-26.1-22.7l25,32.9l31.8-25L698.8,161.8z"/>
	<path fill="#74B208" d="M690.9,220.9l-26.1-21.6l25,31.8l31.8-23.8L690.9,220.9z"/>
	<path fill="#74B208" d="M695.4,190.2l-29.5-25l27.3,37.5l36.3-28.4L695.4,190.2z"/>
	<path fill="#AF0547" d="M754.5,341.3c-15.9,64.7-56.8,44.3-111.3,30.7c-54.5-12.5-99.9-13.6-85.2-78.4
		c15.9-64.7,78.4-132.9,132.9-120.4C745.4,186.8,770.4,276.5,754.5,341.3z"/>
	<path fill="#84003C" d="M692,173.2c54.5,12.5,79.5,102.2,63.6,166.9s-56.8,44.3-111.3,30.7L692,173.2z"/>
	<path fill="#D12269" d="M679.4,181.5c3.1,5.4-8.4,18-25.8,28c-17.4,10.1-34,13.8-37.1,8.4s8.4-18,25.8-28
		C659.6,179.8,676.2,176.1,679.4,181.5z"/>
	<path fill="#680034" d="M613.6,300.4c0,4.4-3.6,7.9-7.9,7.9s-7.9-3.6-7.9-7.9s3.6-7.9,7.9-7.9S613.6,296,613.6,300.4z"/>
	<path fill="#680034" d="M593.2,328.8c0,4.4-3.6,7.9-7.9,7.9c-4.4,0-7.9-3.6-7.9-7.9s3.6-7.9,7.9-7.9
		C589.6,320.8,593.2,324.4,593.2,328.8z"/>
	<path fill="#680034" d="M645.4,276.5c0,4.4-3.6,7.9-7.9,7.9c-4.4,0-7.9-3.6-7.9-7.9s3.6-7.9,7.9-7.9
		C641.9,268.6,645.4,272.1,645.4,276.5z"/>
	<path fill="#680034" d="M623.9,243.6c0,3.8-3.1,6.8-6.8,6.8c-3.8,0-6.8-3.1-6.8-6.8s3.1-6.8,6.8-6.8
		C620.8,236.8,623.9,239.8,623.9,243.6z"/>
	<path fill="#680034" d="M601.2,267.5c0,3.8-3.1,6.8-6.8,6.8c-3.8,0-6.8-3.1-6.8-6.8s3.1-6.8,6.8-6.8
		C598.1,260.6,601.2,263.7,601.2,267.5z"/>
	<path fill="#680034" d="M663.6,239.1c0,3.1-2.5,5.7-5.7,5.7s-5.7-2.5-5.7-5.7s2.5-5.7,5.7-5.7S663.6,235.9,663.6,239.1z"/>
	<path fill="#680034" d="M647.7,212.9c0,3.1-2.5,5.7-5.7,5.7s-5.7-2.5-5.7-5.7s2.5-5.7,5.7-5.7S647.7,209.8,647.7,212.9z"/>
	<path fill="#680034" d="M675,194.8c0,2.5-2,4.5-4.5,4.5c-2.5,0-4.5-2-4.5-4.5c0-2.5,2-4.5,4.5-4.5C672.9,190.2,675,192.3,675,194.8
		z"/>
	<path fill="#680034" d="M640.9,336.7c0,4.4-3.6,7.9-7.9,7.9c-4.4,0-7.9-3.6-7.9-7.9s3.6-7.9,7.9-7.9
		C637.3,328.8,640.9,332.3,640.9,336.7z"/>
	<path fill="#C1145A" d="M718.1,325.4c0,4.4-3.6,7.9-7.9,7.9c-4.4,0-7.9-3.6-7.9-7.9s3.6-7.9,7.9-7.9
		C714.6,317.4,718.1,321,718.1,325.4z"/>
	<path fill="#C1145A" d="M699.9,290.2c0,4.4-3.6,7.9-7.9,7.9s-7.9-3.6-7.9-7.9s3.6-7.9,7.9-7.9S699.9,285.8,699.9,290.2z"/>
	<path fill="#C1145A" d="M732.9,269.7c0,3.8-3.1,6.8-6.8,6.8s-6.8-3.1-6.8-6.8s3.1-6.8,6.8-6.8S732.9,266,732.9,269.7z"/>
	<path fill="#C1145A" d="M743.1,301.5c0,3.8-3.1,6.8-6.8,6.8s-6.8-3.1-6.8-6.8s3.1-6.8,6.8-6.8S743.1,297.8,743.1,301.5z"/>
	<path fill="#C1145A" d="M697.7,247c0,3.1-2.5,5.7-5.7,5.7c-3.1,0-5.7-2.5-5.7-5.7s2.5-5.7,5.7-5.7
		C695.1,241.3,697.7,243.9,697.7,247z"/>
	<path fill="#C1145A" d="M723.8,231.1c0,3.1-2.5,5.7-5.7,5.7c-3.1,0-5.7-2.5-5.7-5.7s2.5-5.7,5.7-5.7
		C721.3,225.4,723.8,228,723.8,231.1z"/>
	<path fill="#C1145A" d="M704.5,202.7c0,2.5-2,4.5-4.5,4.5c-2.5,0-4.5-2-4.5-4.5c0-2.5,2-4.5,4.5-4.5
		C702.5,198.2,704.5,200.2,704.5,202.7z"/>
	<path fill="#C1145A" d="M678.4,345.8c0,4.4-3.6,7.9-7.9,7.9s-7.9-3.6-7.9-7.9s3.6-7.9,7.9-7.9S678.4,341.4,678.4,345.8z"/>
	<path fill="#AF0547" d="M610.2,329.9c-2.3,51.1-36.3,42-78.4,39.7c-42-1.1-77.2,4.5-74.9-45.4c2.3-51.1,38.6-111.3,80.6-110.2
		C580.7,216.4,612.5,279.9,610.2,329.9L610.2,329.9z"/>
	<path fill="#84003C" d="M537.6,214.1c42,1.1,74.9,64.7,72.7,115.8c-2.3,51.1-36.3,42-78.4,39.7L537.6,214.1z"/>
	<path fill="#D12269" d="M529.8,222.4c2.9,3.3-3.9,14-15.2,24s-22.8,15.3-25.7,12c-2.9-3.3,3.9-14,15.2-24
		C515.3,224.5,526.9,219.1,529.8,222.4z"/>
	<path fill="#680034" d="M499,322c0,3.1-2.5,5.7-5.7,5.7c-3.1,0-5.7-2.5-5.7-5.7s2.5-5.7,5.7-5.7C496.4,316.3,499,318.8,499,322z"/>
	<path fill="#680034" d="M487.6,346.9c0,3.1-2.5,5.7-5.7,5.7c-3.1,0-5.7-2.5-5.7-5.7s2.5-5.7,5.7-5.7
		C485.1,341.3,487.6,343.8,487.6,346.9z"/>
	<path fill="#680034" d="M519.4,299.2c0,3.1-2.5,5.7-5.7,5.7c-3.1,0-5.7-2.5-5.7-5.7s2.5-5.7,5.7-5.7
		C516.8,293.6,519.4,296.1,519.4,299.2z"/>
	<path fill="#680034" d="M497.8,277.7c0,2.5-2,4.5-4.5,4.5s-4.5-2-4.5-4.5c0-2.5,2-4.5,4.5-4.5S497.8,275.2,497.8,277.7z"/>
	<path fill="#680034" d="M483.1,299.2c0,2.5-2,4.5-4.5,4.5s-4.5-2-4.5-4.5c0-2.5,2-4.5,4.5-4.5S483.1,296.7,483.1,299.2z"/>
	<path fill="#680034" d="M527.3,268.6c0,2.5-2,4.5-4.5,4.5c-2.5,0-4.5-2-4.5-4.5c0-2.5,2-4.5,4.5-4.5
		C525.3,264,527.3,266.1,527.3,268.6z"/>
	<path fill="#680034" d="M511.4,250.4c0,2.5-2,4.5-4.5,4.5s-4.5-2-4.5-4.5c0-2.5,2-4.5,4.5-4.5S511.4,247.9,511.4,250.4z"/>
	<path fill="#680034" d="M528.5,233.4c0,1.9-1.5,3.4-3.4,3.4s-3.4-1.5-3.4-3.4c0-1.9,1.5-3.4,3.4-3.4S528.5,231.5,528.5,233.4z"/>
	<path fill="#680034" d="M523.9,344.7c0,3.1-2.5,5.7-5.7,5.7s-5.7-2.5-5.7-5.7s2.5-5.7,5.7-5.7S523.9,341.5,523.9,344.7z"/>
	<path fill="#C1145A" d="M580.7,325.4c0,3.1-2.5,5.7-5.7,5.7c-3.1,0-5.7-2.5-5.7-5.7s2.5-5.7,5.7-5.7
		C578.2,319.7,580.7,322.2,580.7,325.4z"/>
	<path fill="#C1145A" d="M589.8,350.3c0,3.1-2.5,5.7-5.7,5.7c-3.1,0-5.7-2.5-5.7-5.7s2.5-5.7,5.7-5.7
		C587.3,344.7,589.8,347.2,589.8,350.3z"/>
	<path fill="#C1145A" d="M561.4,301.5c0,3.1-2.5,5.7-5.7,5.7s-5.7-2.5-5.7-5.7s2.5-5.7,5.7-5.7S561.4,298.4,561.4,301.5z"/>
	<path fill="#C1145A" d="M583,281.1c0,2.5-2,4.5-4.5,4.5c-2.5,0-4.5-2-4.5-4.5c0-2.5,2-4.5,4.5-4.5C580.9,276.5,583,278.6,583,281.1
		z"/>
	<path fill="#C1145A" d="M594.3,303.8c0,2.5-2,4.5-4.5,4.5c-2.5,0-4.5-2-4.5-4.5c0-2.5,2-4.5,4.5-4.5
		C592.3,299.2,594.3,301.3,594.3,303.8z"/>
	<path fill="#C1145A" d="M553.5,269.7c0,2.5-2,4.5-4.5,4.5c-2.5,0-4.5-2-4.5-4.5c0-2.5,2-4.5,4.5-4.5
		C551.4,265.2,553.5,267.2,553.5,269.7z"/>
	<path fill="#C1145A" d="M562.5,252.7c0,2.3,1.1,4.5,3.4,4.5s4.5-1.1,4.5-3.4c0-2.3-1.1-4.5-3.4-4.5
		C564.8,249.3,562.5,250.4,562.5,252.7z"/>
	<path fill="#C1145A" d="M552.3,234.5c0,1.9-1.5,3.4-3.4,3.4s-3.4-1.5-3.4-3.4c0-1.9,1.5-3.4,3.4-3.4S552.3,232.6,552.3,234.5z"/>
	<path fill="#C1145A" d="M553.5,345.8c0,3.1-2.5,5.7-5.7,5.7c-3.1,0-5.7-2.5-5.7-5.7s2.5-5.7,5.7-5.7
		C550.9,340.1,553.5,342.7,553.5,345.8z"/>
	<path fill="#E9F98C" d="M501.2,383.3c0,0-159-168.1-221.4-153.3c-62.5,14.8-39.7,64.7-39.7,64.7s-51.1-14.8-65.9,13.6s-42,42-42,42
		l-25,26.1l38.6,36.3l388.4,7.9L501.2,383.3L501.2,383.3z"/>
	<path fill="#BEE874" d="M468.3,375.3c0,0-130.6-138.5-181.7-126c-51.1,12.5-32.9,53.4-32.9,53.4s-42-12.5-54.5,11.4
		c-12.5,23.8-34.1,34.1-34.1,34.1l-20.4,21.6l30.7,30.7l319.1,5.7L468.3,375.3L468.3,375.3z"/>
	<path fill="#80C612" d="M471.7,390.1c0,0-128.3-135.1-178.3-123.8c-50,12.5-31.8,52.2-31.8,52.2s-40.9-12.5-53.4,10.2
		c-12.5,22.7-32.9,32.9-32.9,32.9L156,383.3l30.7,30.7l312.3,5.7L471.7,390.1L471.7,390.1z"/>
	<path fill="#008730" d="M472.8,403.7c0,0-121.5-129.5-170.3-118.1c-47.7,11.4-30.7,48.8-30.7,48.8s-39.7-11.4-51.1,10.2
		c-11.4,21.6-31.8,31.8-31.8,31.8l-19.3,20.4l29.5,29.5l297.5,5.7L472.8,403.7L472.8,403.7z"/>
	<path fill="#026824" d="M485.3,421.9c0,0-121.5-129.5-170.3-118.1c-47.7,11.4-30.7,48.8-30.7,48.8s-39.7-11.4-51.1,10.2
		c-11.4,21.6-31.8,31.8-31.8,31.8l-19.3,20.4l29.5,29.5l297.5,5.7L485.3,421.9L485.3,421.9z"/>
	<path fill="#D32E26" d="M178.7,279.9c0,22-17.8,39.7-39.7,39.7s-39.7-17.8-39.7-39.7c0-22,17.8-39.7,39.7-39.7
		S178.7,258,178.7,279.9z"/>
	<path fill="#B20202" d="M151.5,242.5c20.4,6.8,31.8,29.5,26.1,50c-6.8,20.4-29.5,31.8-50,26.1L151.5,242.5z"/>
	<path fill="#F24141" d="M108.9,264.7c4.7-8.9,11.2-14.6,14.6-12.8c3.3,1.8,2.2,10.4-2.5,19.2c-4.7,8.9-11.2,14.6-14.6,12.8
		C103,282.2,104.1,273.6,108.9,264.7z"/>
	<path fill="#3D1704" d="M128.8,249.3c1.1,2.3,0,4.5-2.3,5.7l0,0c-2.3,1.1-4.5,0-5.7-2.3l-13.6-26.1c-1.1-2.3,0-4.5,2.3-5.7l0,0
		c2.3-1.1,4.5,0,5.7,2.3C115.1,223.2,128.8,249.3,128.8,249.3z"/>
	<path fill="#3D1704" d="M117.4,200.5c1.1-2.3,3.4-2.3,5.7-1.1l0,0c2.3,1.1,3.4,3.4,2.3,5.7L114,225.4c-1.1,2.3-3.4,2.3-5.7,1.1l0,0
		c-2.3-1.1-3.4-3.4-2.3-4.5C106,222,117.4,200.5,117.4,200.5z"/>
	<path fill="#D32E26" d="M169.6,334.4c0,22-17.8,39.7-39.7,39.7s-39.7-17.8-39.7-39.7c0-22,17.8-39.7,39.7-39.7
		S169.6,312.5,169.6,334.4z"/>
	<path fill="#B20202" d="M120.8,295.8c21.6-4.5,43.2,7.9,47.7,29.5s-7.9,43.2-29.5,47.7L120.8,295.8z"/>
	<path fill="#F24141" d="M96.2,336.6c-0.5-10,2.1-18.3,5.9-18.5c3.8-0.2,7.2,7.8,7.7,17.8c0.5,10-2.1,18.3-5.9,18.5
		C100.2,354.6,96.7,346.6,96.2,336.6z"/>
	<path fill="#3D1704" d="M104.9,312.9c2.3,1.1,2.3,4.5,1.1,6.8l0,0c-1.1,2.3-3.4,2.3-5.7,1.1l-25-15.9c-2.3-1.1-3.4-3.4-2.3-5.7l0,0
		c1.1-2.3,4.5-2.3,6.8-1.1L104.9,312.9L104.9,312.9z"/>
	<path fill="#F4F1E6" d="M569.4,264c62.5-3.4,115.8,23.8,126,60.2c1.1-4.5,1.1-7.9,1.1-12.5c-2.3-43.2-59-76.1-128.3-72.7
		c-69.3,3.4-123.8,40.9-121.5,84c0,4.5,1.1,7.9,2.3,12.5C455.8,298.1,506.9,267.5,569.4,264z"/>
	<path fill="#F4F1E6" d="M547.8,294.7c50,3.4,89.7,28.4,95.4,59c1.1-3.4,1.1-6.8,2.3-9.1c2.3-35.2-40.9-65.9-95.4-69.3
		S449,297,446.7,332.2c0,3.4,0,6.8,1.1,10.2C454.7,311.7,497.8,291.3,547.8,294.7L547.8,294.7z"/>
	<path fill="#77003C" d="M139,51.7c-14.8-6.8-31.8-1.1-37.5,11.4C97,74.4,106,76.7,117.4,81.2c-1.1,2.3-2.3,4.5-3.4,6.8
		c-4.5,9.1,1.1,7.9,4.5,10.2c4.5,2.3,6.8,5.7,11.4-3.4c1.1-2.3,2.3-4.5,2.3-6.8c11.4,5.7,19.3,10.2,25-1.1
		C161.7,74.4,153.7,58.5,139,51.7L139,51.7z"/>
	<path fill="#440029" d="M114,88c-4.5,9.1,1.1,7.9,4.5,10.2c4.5,2.3,6.8,5.7,11.4-3.4c1.1-2.3,2.3-4.5,2.3-6.8
		c11.4,5.7,19.3,10.2,25-1.1c5.7-12.5-2.3-28.4-17-35.2L114,88z"/>
	<path fill="#77003C" d="M97,118.7c-11.4,5.7-17,19.3-11.4,28.4c4.5,7.9,10.2,4.5,19.3-1.1c0,2.3,1.1,3.4,2.3,5.7
		c3.4,6.8,5.7,3.4,9.1,2.3c3.4-2.3,6.8-1.1,3.4-7.9c-2.3-2.3-3.4-3.4-4.5-5.7c9.1-4.5,15.9-6.8,11.4-14.8
		C121.9,115.3,108.3,113,97,118.7L97,118.7z"/>
	<path fill="#440029" d="M106,151.6c3.4,6.8,5.7,3.4,9.1,2.3c3.4-2.3,6.8-1.1,3.4-7.9c-1.1-2.3-2.3-3.4-3.4-5.7
		c9.1-4.5,15.9-6.8,11.4-14.8c-4.5-10.2-18.2-12.5-29.5-6.8L106,151.6z"/>
	<path fill="#77003C" d="M677.2,39.2c-11.4,5.7-17,19.3-11.4,28.4c3.4,7.9,10.2,4.5,19.3-1.1c0,2.3,1.1,3.4,2.3,5.7
		c3.4,6.8,5.7,3.4,9.1,2.3c3.4-2.3,6.8-1.1,3.4-7.9c-2.3-2.3-3.4-3.4-4.5-5.7c9.1-4.5,15.9-6.8,11.4-14.8
		C702.2,35.8,688.6,33.5,677.2,39.2L677.2,39.2z"/>
	<path fill="#440029" d="M686.3,72.1c3.4,6.8,5.7,3.4,9.1,2.3c3.4-2.3,6.8-1.1,3.4-7.9c-1.1-2.3-2.3-3.4-3.4-5.7
		c9.1-4.5,15.9-6.8,11.4-14.8c-4.5-10.2-18.2-12.5-30.7-6.8L686.3,72.1z"/>
</g>
<title></title>
<g id="icomoon-ignore">
</g>
<g>
	<path fill="#0CB04A" d="M1004.4,440.5H722.9c-10.8,0-19.6-16.2-19.6-36.1v-5.7c0-19.9,8.8-36.1,19.6-36.1h281.5
		c10.8,0,19.6,16.2,19.6,36.1v5.7C1024,424.3,1015.2,440.5,1004.4,440.5z"/>
	<path fill="#0CB04A" d="M643.6,636.5H234.3L72.7,363.7h732.5L643.6,636.5L643.6,636.5z"/>
	<path opacity="0.35" enable-background="new    " d="M712.2,363.7l-84.7,143c-24.3,41-56,63.7-88.9,63.7H195.1l39.1,66.1h409.3
		l161.6-272.8L712.2,363.7L712.2,363.7z"/>
</g>
<g>
	<path fill="#EF771D" d="M199.7,605.5c-82.1,62-62,68.8,0,150.9C281.8,694.3,261.8,687.6,199.7,605.5z"/>
	<path fill="#F9DA49" d="M449.7,508.8c-134.7,101.8-101.8,112.9,0,247.6C584.4,654.6,551.4,643.5,449.7,508.8z"/>
	<path fill="#EF771D" d="M691,605.5c-82.1,62-62,68.8,0,150.9C773.1,694.3,753,687.6,691,605.5z"/>
	<path fill="#5A5D6F" d="M771.2,805.3H125.9c-10.5,0-19-8.5-19-19c0-10.5,8.5-19,19-19h645.3c10.5,0,19,8.5,19,19
		C790.2,796.8,781.7,805.3,771.2,805.3z"/>
</g>
</svg>
