<?xml version="1.0" encoding="utf-8"?>
<!-- Generator: Adobe Illustrator 21.1.0, SVG Export Plug-In . SVG Version: 6.00 Build 0)  -->
<svg version="1.1" id="Layer_1" xmlns="http://www.w3.org/2000/svg" xmlns:xlink="http://www.w3.org/1999/xlink" x="0px" y="0px"
	 viewBox="0 0 1024 1024" enable-background="new 0 0 1024 1024" xml:space="preserve">
<g id="icomoon-ignore">
</g>
<g>
	<g>
		<path fill="#0F8433" d="M832.8,159.7c-12.2-10.9-28.5-12.2-42.1-6.8c4.1-17.6-2.7-36.7-19-44.8c-17.6-9.5-39.4-5.4-51.6,9.5
			c0-17.6-12.2-35.3-31.2-39.4c-9.5-2.7-19-1.4-25.8,2.7c-9.5-9.5-20.4-14.9-32.6-17.6c-20.4-2.7-38,6.8-48.9,21.7
			c-8.1-21.7-29.9-35.3-52.9-32.6c-25.8,2.7-44.8,23.1-46.2,47.5c-13.6-19-38-27.2-61.1-19c-27.2,9.5-40.7,39.4-29.9,66.5
			l66.5,179.2c-28.5,23.1-47.5,59.7-47.5,101.8c0,70.6,54.3,127.6,120.8,127.6s120.8-57,120.8-127.6c0-9.5-1.4-20.4-2.7-29.9
			c13.6,2.7,27.2-2.7,36.7-13.6l149.3-168.4C850.5,200.4,849.1,174.6,832.8,159.7L832.8,159.7z"/>
		<path fill="#026824" d="M796.1,192.3c-10.9-9.5-25.8-12.2-38-6.8c4.1-16.3-2.7-32.6-17.6-40.7c-16.3-9.5-36.7-5.4-47.5,8.1
			c0-16.3-10.9-32.6-28.5-36.7c-8.1-2.7-16.3-1.4-24.4,2.7c-6.8-8.1-17.7-13.6-29.9-14.9c-17.7-2.7-35.3,6.8-44.8,20.4
			c-6.8-19-27.2-32.6-48.9-29.9c-23.1,2.7-40.7,20.4-43.4,43.4c-12.2-17.6-35.3-25.8-55.7-17.6c-24.4,9.5-36.7,36.7-27.2,61.1
			l61.1,164.3c-27.2,21.7-43.4,55.7-43.4,93.7c0,65.2,50.2,116.8,111.3,116.8s111.3-52.9,111.3-116.8c0-9.5-1.4-17.6-2.7-27.2
			c12.2,1.4,25.8-1.4,33.9-12.2l137.1-154.8C812.4,228.9,811.1,205.9,796.1,192.3L796.1,192.3z"/>
		<path fill="#003F12" d="M736.4,245.2c-9.5-8.1-21.7-9.5-32.6-5.4c2.7-13.6-2.7-28.5-14.9-35.3c-13.6-8.1-31.2-4.1-40.7,8.1
			c0-14.9-9.5-27.2-24.4-31.2c-6.8-1.4-14.9-1.4-20.4,2.7c-6.8-6.8-14.9-12.2-24.4-13.6c-16.3-1.4-29.9,5.4-38,17.6
			c-6.8-16.3-23.1-28.5-42.1-25.8c-20.4,1.4-35.3,17.6-36.7,36.7c-10.9-14.9-29.9-21.7-47.5-14.9c-20.4,8.1-31.2,31.2-24.4,52.9
			l52.9,141.2c-23.1,17.6-38,47.5-38,80.1c0,55.7,42.1,100.5,95,100.5s95-44.8,95-100.5c0-8.1-1.4-16.3-2.7-23.1
			c10.9,1.4,21.7-1.4,28.5-10.9l116.8-131.7C751.3,276.5,750,256.1,736.4,245.2L736.4,245.2z"/>
		<path fill="#00A057" d="M482.5,258.8c0,89.2-72.3,161.6-161.6,161.6S159.4,348,159.4,258.8c0-89.2,72.3-161.6,161.6-161.6
			S482.5,169.6,482.5,258.8z"/>
		<path fill="#008730" d="M321,97.3c89.6,0,161.6,72,161.6,161.6s-72,161.6-161.6,161.6V97.3z"/>
		<path fill="#E9F98C" d="M449.9,258.8c0,71.2-57.7,129-129,129s-129-57.7-129-129s57.7-129,129-129S449.9,187.6,449.9,258.8
			L449.9,258.8z"/>
		<path fill="#BEE874" d="M411.9,167.9c50.2,50.2,50.2,133.1,0,183.3s-133.1,50.2-183.3,0L411.9,167.9z"/>
		<path fill="#80C612" d="M300.6,182.8L300.6,182.8l20.4,47.5l20.4-47.5c1.4-2.7,1.4-5.4,1.4-9.5c0-12.2-9.5-21.7-21.7-21.7
			s-21.7,9.5-21.7,21.7C299.2,177.4,299.2,180.1,300.6,182.8L300.6,182.8z"/>
		<path fill="#80C612" d="M255.8,222.2L255.8,222.2l47.5,19l-19-47.5c-1.4-2.7-2.7-5.4-5.4-8.1c-8.1-8.1-21.7-8.1-31.2,0
			c-8.1,8.1-8.1,21.7,0,31.2C250.4,219.4,253.1,220.8,255.8,222.2L255.8,222.2z"/>
		<path fill="#80C612" d="M364.4,190.9L364.4,190.9l-19,47.5l47.5-19c2.7-1.4,5.4-2.7,8.1-5.4c8.1-8.1,8.1-21.7,0-31.2
			c-8.1-8.1-21.7-8.1-31.2,0C367.1,185.5,365.8,188.2,364.4,190.9L364.4,190.9z"/>
		<path fill="#80C612" d="M390.2,299.5L390.2,299.5l-47.5-19l19,47.5c1.4,2.7,2.7,5.4,5.4,8.1c8.1,8.1,21.7,8.1,31.2,0
			c8.1-8.1,8.1-21.7,0-31.2C395.6,302.3,392.9,300.9,390.2,299.5L390.2,299.5z"/>
		<path fill="#80C612" d="M341.3,334.8L341.3,334.8L321,287.3l-20.4,47.5c-1.4,2.7-1.4,5.4-1.4,9.5c0,12.2,9.5,21.7,21.7,21.7
			s21.7-9.5,21.7-21.7C342.7,340.3,341.3,337.6,341.3,334.8L341.3,334.8z"/>
		<path fill="#80C612" d="M397,238.4L397,238.4l-47.5,20.4l47.5,20.4c2.7,1.4,5.4,1.4,9.5,1.4c12.2,0,21.7-9.5,21.7-21.7
			c0-12.2-9.5-21.7-21.7-21.7C402.4,237.1,399.7,237.1,397,238.4L397,238.4z"/>
		<path fill="#80C612" d="M244.9,279.2L244.9,279.2l47.5-20.4l-47.5-20.4c-2.7-1.4-5.4-1.4-9.5-1.4c-12.2,0-21.7,9.5-21.7,21.7
			c0,12.2,9.5,21.7,21.7,21.7C239.5,280.5,242.2,280.5,244.9,279.2L244.9,279.2z"/>
		<path fill="#80C612" d="M281.6,326.7L281.6,326.7l19-47.5l-47.5,19c-2.7,1.4-5.4,2.7-8.1,5.4c-8.1,8.1-8.1,21.7,0,31.2
			c8.1,8.1,21.7,8.1,31.2,0C278.9,332.1,280.2,329.4,281.6,326.7L281.6,326.7z"/>
		<path fill="#82C60A" d="M642.7,129.8L642.7,129.8L642.7,129.8L642.7,129.8c-5.4,78.7-72,118.1-39.4,198.2
			c19,46.2,70.6,58.4,130.3,69.2l0,0h1.4c40.7-40.7,73.3-85.5,61.1-134.4C771.7,180.1,694.3,189.6,642.7,129.8L642.7,129.8z"/>
		<path fill="#5EA304" d="M733.7,397.3L733.7,397.3L733.7,397.3L733.7,397.3c40.7-40.7,74.7-86.9,61.1-134.4
			c-23.1-82.8-100.5-73.3-152.1-133.1l0,0h-1.4L733.7,397.3z"/>
		<path fill="#74B208" d="M683.5,248l-52.9-12.2l58.4,28.5l27.2-57L683.5,248z"/>
		<path fill="#74B208" d="M713.3,337.6l-51.6-12.2l57,28.5l28.5-57L713.3,337.6z"/>
		<path fill="#74B208" d="M698.4,292.8l-59.7-14.9l65.2,32.6l32.6-65.2L698.4,292.8z"/>
		<path fill="#82C60A" d="M857.2,124.4L857.2,124.4L857.2,124.4L857.2,124.4C830.1,176,769,182.8,764.9,248
			c-2.7,38,28.5,67.9,65.2,95l0,0l0,0l0,0c42.1-27.2,78.7-36.7,85.5-73.3C929.2,205.9,870.8,182.8,857.2,124.4L857.2,124.4z"/>
		<path fill="#5EA304" d="M830.1,343L830.1,343L830.1,343L830.1,343c43.4-27.2,78.7-36.7,85.5-73.3c12.2-63.8-44.8-86.9-58.4-145.3
			l0,0l0,0v1.4L830.1,343z"/>
		<path fill="#74B208" d="M846.4,219.4l-31.2-27.2l29.9,39.4l38-29.9L846.4,219.4z"/>
		<path fill="#74B208" d="M836.9,290l-31.2-25.8l29.9,38l38-28.5L836.9,290z"/>
		<path fill="#74B208" d="M842.3,253.4L807,223.5l32.6,44.8l43.4-33.9L842.3,253.4z"/>
		<path fill="#AF0547" d="M912.9,434c-19,77.4-67.9,52.9-133.1,36.7c-65.2-14.9-119.5-16.3-101.8-93.7
			c19-77.4,93.7-158.8,158.8-143.9C902,249.3,931.9,356.6,912.9,434z"/>
		<path fill="#84003C" d="M838.2,233c65.2,14.9,95,122.2,76,199.6s-67.9,52.9-133.1,36.7L838.2,233z"/>
		<path fill="#D12269" d="M823.2,243c3.8,6.5-10,21.5-30.8,33.5c-20.8,12-40.7,16.5-44.4,10c-3.8-6.5,10-21.5,30.8-33.5
			C799.5,241,819.4,236.5,823.2,243z"/>
		<path fill="#680034" d="M744.6,385.1c0,5.2-4.3,9.5-9.5,9.5c-5.2,0-9.5-4.3-9.5-9.5c0-5.2,4.3-9.5,9.5-9.5
			C740.3,375.6,744.6,379.8,744.6,385.1z"/>
		<path fill="#680034" d="M720.1,419c0,5.2-4.3,9.5-9.5,9.5c-5.2,0-9.5-4.3-9.5-9.5c0-5.2,4.3-9.5,9.5-9.5
			C715.9,409.5,720.1,413.8,720.1,419z"/>
		<path fill="#680034" d="M782.6,356.6c0,5.2-4.3,9.5-9.5,9.5c-5.2,0-9.5-4.3-9.5-9.5c0-5.2,4.3-9.5,9.5-9.5
			C778.3,347.1,782.6,351.3,782.6,356.6z"/>
		<path fill="#680034" d="M756.8,317.2c0,4.5-3.6,8.1-8.1,8.1c-4.5,0-8.1-3.6-8.1-8.1c0-4.5,3.6-8.1,8.1-8.1
			C753.1,309,756.8,312.7,756.8,317.2z"/>
		<path fill="#680034" d="M729.6,345.7c0,4.5-3.6,8.1-8.1,8.1c-4.5,0-8.1-3.6-8.1-8.1c0-4.5,3.6-8.1,8.1-8.1
			C726,337.6,729.6,341.2,729.6,345.7z"/>
		<path fill="#680034" d="M804.3,311.8c0,3.7-3,6.8-6.8,6.8c-3.7,0-6.8-3-6.8-6.8s3-6.8,6.8-6.8C801.3,305,804.3,308,804.3,311.8z"
			/>
		<path fill="#680034" d="M785.3,280.5c0,3.7-3,6.8-6.8,6.8s-6.8-3-6.8-6.8s3-6.8,6.8-6.8S785.3,276.8,785.3,280.5z"/>
		<path fill="#680034" d="M817.9,258.8c0,3-2.4,5.4-5.4,5.4c-3,0-5.4-2.4-5.4-5.4c0-3,2.4-5.4,5.4-5.4
			C815.4,253.4,817.9,255.8,817.9,258.8z"/>
		<path fill="#680034" d="M777.1,428.5c0,5.2-4.3,9.5-9.5,9.5c-5.2,0-9.5-4.3-9.5-9.5c0-5.2,4.3-9.5,9.5-9.5
			C772.9,419,777.1,423.3,777.1,428.5z"/>
		<path fill="#C1145A" d="M869.5,414.9c0,5.2-4.3,9.5-9.5,9.5c-5.2,0-9.5-4.3-9.5-9.5c0-5.2,4.3-9.5,9.5-9.5
			C865.2,405.4,869.5,409.7,869.5,414.9z"/>
		<path fill="#C1145A" d="M847.7,372.9c0,5.2-4.3,9.5-9.5,9.5c-5.2,0-9.5-4.3-9.5-9.5c0-5.2,4.3-9.5,9.5-9.5
			C843.5,363.4,847.7,367.6,847.7,372.9z"/>
		<path fill="#C1145A" d="M887.1,348.4c0,4.5-3.6,8.1-8.1,8.1c-4.5,0-8.1-3.6-8.1-8.1s3.6-8.1,8.1-8.1
			C883.5,340.3,887.1,343.9,887.1,348.4z"/>
		<path fill="#C1145A" d="M899.3,386.4c0,4.5-3.6,8.1-8.1,8.1c-4.5,0-8.1-3.6-8.1-8.1s3.6-8.1,8.1-8.1
			C895.7,378.3,899.3,381.9,899.3,386.4z"/>
		<path fill="#C1145A" d="M845,321.3c0,3.7-3,6.8-6.8,6.8c-3.7,0-6.8-3-6.8-6.8s3-6.8,6.8-6.8C842,314.5,845,317.5,845,321.3z"/>
		<path fill="#C1145A" d="M876.3,302.3c0,3.7-3,6.8-6.8,6.8c-3.7,0-6.8-3-6.8-6.8s3-6.8,6.8-6.8
			C873.2,295.5,876.3,298.5,876.3,302.3z"/>
		<path fill="#C1145A" d="M853.2,268.3c0,3-2.4,5.4-5.4,5.4c-3,0-5.4-2.4-5.4-5.4c0-3,2.4-5.4,5.4-5.4
			C850.7,262.9,853.2,265.3,853.2,268.3z"/>
		<path fill="#C1145A" d="M821.9,439.4c0,5.2-4.3,9.5-9.5,9.5s-9.5-4.3-9.5-9.5c0-5.2,4.3-9.5,9.5-9.5S821.9,434.1,821.9,439.4z"/>
		<path fill="#AF0547" d="M740.5,420.4c-2.7,61.1-43.4,50.2-93.7,47.5c-50.2-1.4-92.3,5.4-89.6-54.3c2.7-61.1,46.2-133.1,96.4-131.7
			C705.2,284.6,743.2,360.6,740.5,420.4L740.5,420.4z"/>
		<path fill="#84003C" d="M653.6,281.9c50.2,1.4,89.6,77.4,86.9,138.5s-43.4,50.2-93.7,47.5L653.6,281.9z"/>
		<path fill="#D12269" d="M644.3,291.9c3.5,3.9-4.7,16.8-18.2,28.7c-13.5,11.9-27.3,18.3-30.7,14.4c-3.5-3.9,4.7-16.8,18.2-28.7
			C627,294.4,640.8,287.9,644.3,291.9z"/>
		<path fill="#680034" d="M607.4,410.9c0,3.7-3,6.8-6.8,6.8c-3.7,0-6.8-3-6.8-6.8s3-6.8,6.8-6.8
			C604.4,404.1,607.4,407.1,607.4,410.9z"/>
		<path fill="#680034" d="M593.9,440.7c0,3.7-3,6.8-6.8,6.8c-3.7,0-6.8-3-6.8-6.8c0-3.7,3-6.8,6.8-6.8
			C590.8,434,593.9,437,593.9,440.7z"/>
		<path fill="#680034" d="M631.9,383.7c0,3.7-3,6.8-6.8,6.8c-3.7,0-6.8-3-6.8-6.8s3-6.8,6.8-6.8C628.8,376.9,631.9,380,631.9,383.7z
			"/>
		<path fill="#680034" d="M606.1,357.9c0,3-2.4,5.4-5.4,5.4c-3,0-5.4-2.4-5.4-5.4c0-3,2.4-5.4,5.4-5.4
			C603.6,352.5,606.1,354.9,606.1,357.9z"/>
		<path fill="#680034" d="M588.4,383.7c0,3-2.4,5.4-5.4,5.4c-3,0-5.4-2.4-5.4-5.4c0-3,2.4-5.4,5.4-5.4
			C586,378.3,588.4,380.7,588.4,383.7z"/>
		<path fill="#680034" d="M641.4,347.1c0,3-2.4,5.4-5.4,5.4c-3,0-5.4-2.4-5.4-5.4c0-3,2.4-5.4,5.4-5.4
			C638.9,341.6,641.4,344.1,641.4,347.1z"/>
		<path fill="#680034" d="M622.4,325.3c0,3-2.4,5.4-5.4,5.4c-3,0-5.4-2.4-5.4-5.4c0-3,2.4-5.4,5.4-5.4
			C619.9,319.9,622.4,322.3,622.4,325.3z"/>
		<path fill="#680034" d="M642.7,305c0,2.2-1.8,4.1-4.1,4.1c-2.2,0-4.1-1.8-4.1-4.1c0-2.2,1.8-4.1,4.1-4.1
			C640.9,300.9,642.7,302.7,642.7,305z"/>
		<path fill="#680034" d="M637.3,438c0,3.7-3,6.8-6.8,6.8c-3.7,0-6.8-3-6.8-6.8s3-6.8,6.8-6.8C634.3,431.2,637.3,434.3,637.3,438z"
			/>
		<path fill="#C1145A" d="M705.2,414.9c0,3.7-3,6.8-6.8,6.8c-3.7,0-6.8-3-6.8-6.8s3-6.8,6.8-6.8
			C702.1,408.2,705.2,411.2,705.2,414.9z"/>
		<path fill="#C1145A" d="M716,444.8c0,3.7-3,6.8-6.8,6.8c-3.7,0-6.8-3-6.8-6.8s3-6.8,6.8-6.8C713,438,716,441.1,716,444.8z"/>
		<path fill="#C1145A" d="M682.1,386.4c0,3.7-3,6.8-6.8,6.8c-3.7,0-6.8-3-6.8-6.8s3-6.8,6.8-6.8
			C679.1,379.6,682.1,382.7,682.1,386.4z"/>
		<path fill="#C1145A" d="M707.9,362c0,3-2.4,5.4-5.4,5.4c-3,0-5.4-2.4-5.4-5.4c0-3,2.4-5.4,5.4-5.4
			C705.5,356.6,707.9,359,707.9,362z"/>
		<path fill="#C1145A" d="M721.5,389.2c0,3-2.4,5.4-5.4,5.4c-3,0-5.4-2.4-5.4-5.4c0-3,2.4-5.4,5.4-5.4
			C719,383.7,721.5,386.2,721.5,389.2z"/>
		<path fill="#C1145A" d="M672.6,348.4c0,3-2.4,5.4-5.4,5.4c-3,0-5.4-2.4-5.4-5.4c0-3,2.4-5.4,5.4-5.4
			C670.2,343,672.6,345.4,672.6,348.4z"/>
		<path fill="#C1145A" d="M683.5,328.1c0,2.7,1.4,5.4,4.1,5.4s5.4-1.4,5.4-4.1c0-2.7-1.4-5.4-4.1-5.4S683.5,325.3,683.5,328.1z"/>
		<path fill="#C1145A" d="M671.2,306.3c0,2.2-1.8,4.1-4.1,4.1c-2.2,0-4.1-1.8-4.1-4.1c0-2.2,1.8-4.1,4.1-4.1
			C669.4,302.3,671.2,304.1,671.2,306.3z"/>
		<path fill="#C1145A" d="M672.6,439.4c0,3.7-3,6.8-6.8,6.8c-3.7,0-6.8-3-6.8-6.8s3-6.8,6.8-6.8
			C669.6,432.6,672.6,435.6,672.6,439.4z"/>
		<path fill="#E9F98C" d="M610.1,484.2c0,0-190.1-200.9-264.7-183.3c-74.7,17.7-47.5,77.4-47.5,77.4s-61.1-17.6-78.7,16.3
			s-50.2,50.2-50.2,50.2L139,476l46.2,43.4l464.3,9.5L610.1,484.2L610.1,484.2z"/>
		<path fill="#BEE874" d="M570.8,474.7c0,0-156.1-165.6-217.2-150.7c-61.1,14.9-39.4,63.8-39.4,63.8s-50.2-14.9-65.2,13.6
			s-40.7,40.7-40.7,40.7l-24.4,25.8l36.7,36.7l381.5,6.8L570.8,474.7L570.8,474.7z"/>
		<path fill="#80C612" d="M574.9,492.3c0,0-153.4-161.6-213.2-148c-59.7,14.9-38,62.5-38,62.5s-48.9-14.9-63.8,12.2
			c-14.9,27.2-39.4,39.4-39.4,39.4l-23.1,25.8l36.7,36.7l373.4,6.8L574.9,492.3L574.9,492.3z"/>
		<path fill="#008730" d="M576.2,508.6c0,0-145.3-154.8-203.7-141.2c-57,13.6-36.7,58.4-36.7,58.4s-47.5-13.6-61.1,12.2
			c-13.6,25.8-38,38-38,38l-23.1,24.4l35.3,35.3l355.7,6.8L576.2,508.6L576.2,508.6z"/>
		<path fill="#026824" d="M591.1,530.3c0,0-145.3-154.8-203.7-141.2c-57,13.6-36.7,58.4-36.7,58.4s-47.5-13.6-61.1,12.2
			c-13.6,25.8-38,38-38,38l-23.1,24.4l35.3,35.3l355.7,6.8L591.1,530.3L591.1,530.3z"/>
		<path fill="#D32E26" d="M224.6,360.6c0,26.2-21.3,47.5-47.5,47.5s-47.5-21.3-47.5-47.5c0-26.2,21.3-47.5,47.5-47.5
			S224.6,334.4,224.6,360.6z"/>
		<path fill="#B20202" d="M192,315.8c24.4,8.1,38,35.3,31.2,59.7c-8.1,24.4-35.3,38-59.7,31.2L192,315.8z"/>
		<path fill="#F24141" d="M141.1,342.4c5.6-10.6,13.4-17.5,17.4-15.3c4,2.1,2.6,12.4-3,23c-5.6,10.6-13.4,17.5-17.4,15.3
			C134.1,363.3,135.4,353,141.1,342.4z"/>
		<path fill="#3D1704" d="M164.8,324c1.4,2.7,0,5.4-2.7,6.8l0,0c-2.7,1.4-5.4,0-6.8-2.7L139,296.8c-1.4-2.7,0-5.4,2.7-6.8l0,0
			c2.7-1.4,5.4,0,6.8,2.7C148.5,292.8,164.8,324,164.8,324z"/>
		<path fill="#3D1704" d="M151.3,265.6c1.4-2.7,4.1-2.7,6.8-1.4l0,0c2.7,1.4,4.1,4.1,2.7,6.8l-13.6,24.4c-1.4,2.7-4.1,2.7-6.8,1.4
			l0,0c-2.7-1.4-4.1-4.1-2.7-5.4C137.7,291.4,151.3,265.6,151.3,265.6z"/>
		<path fill="#D32E26" d="M213.7,425.8c0,26.2-21.3,47.5-47.5,47.5s-47.5-21.3-47.5-47.5c0-26.2,21.3-47.5,47.5-47.5
			S213.7,399.6,213.7,425.8z"/>
		<path fill="#B20202" d="M155.3,379.6c25.8-5.4,51.6,9.5,57,35.3c5.4,25.8-9.5,51.6-35.3,57L155.3,379.6z"/>
		<path fill="#F24141" d="M125.9,428.3c-0.6-12,2.6-21.9,7.1-22.1c4.5-0.2,8.6,9.3,9.2,21.3s-2.6,21.9-7.1,22.1
			C130.7,449.8,126.5,440.3,125.9,428.3z"/>
		<path fill="#3D1704" d="M136.3,400c2.7,1.4,2.7,5.4,1.4,8.1l0,0c-1.4,2.7-4.1,2.7-6.8,1.4l-29.9-19c-2.7-1.4-4.1-4.1-2.7-6.8l0,0
			c1.4-2.7,5.4-2.7,8.1-1.4L136.3,400L136.3,400z"/>
		<path fill="#F4F1E6" d="M691.6,341.6c74.7-4.1,138.5,28.5,150.7,72c1.4-5.4,1.4-9.5,1.4-14.9c-2.7-51.6-70.6-91-153.4-86.9
			s-148,48.9-145.3,100.5c0,5.4,1.4,9.5,2.7,14.9C555.8,382.4,616.9,345.7,691.6,341.6z"/>
		<path fill="#F4F1E6" d="M665.8,378.3c59.7,4.1,107.3,33.9,114,70.6c1.4-4.1,1.4-8.1,2.7-10.9c2.7-42.1-48.9-78.7-114-82.8
			S547.7,381,545,423.1c0,4.1,0,8.1,1.4,12.2C554.5,398.7,606.1,374.2,665.8,378.3L665.8,378.3z"/>
		<path fill="#77003C" d="M177.1,87.7c-17.6-8.1-38-1.4-44.8,13.6c-5.4,13.6,5.4,16.3,19,21.7c-1.4,2.7-2.7,5.4-4.1,8.1
			c-5.4,10.9,1.4,9.5,5.4,12.2c5.4,2.7,8.1,6.8,13.6-4.1c1.4-2.7,2.7-5.4,2.7-8.1c13.6,6.8,23.1,12.2,29.9-1.4
			C204.2,114.9,194.7,95.9,177.1,87.7L177.1,87.7z"/>
		<path fill="#440029" d="M147.2,131.2c-5.4,10.9,1.4,9.5,5.4,12.2c5.4,2.7,8.1,6.8,13.6-4.1c1.4-2.7,2.7-5.4,2.7-8.1
			c13.6,6.8,23.1,12.2,29.9-1.4c6.8-14.9-2.7-33.9-20.4-42.1L147.2,131.2z"/>
		<path fill="#77003C" d="M126.8,167.9c-13.6,6.8-20.4,23.1-13.6,33.9c5.4,9.5,12.2,5.4,23.1-1.4c0,2.7,1.4,4.1,2.7,6.8
			c4.1,8.1,6.8,4.1,10.9,2.7c4.1-2.7,8.1-1.4,4.1-9.5c-2.7-2.7-4.1-4.1-5.4-6.8c10.9-5.4,19-8.1,13.6-17.6
			C156.7,163.8,140.4,161.1,126.8,167.9L126.8,167.9z"/>
		<path fill="#440029" d="M137.7,207.2c4.1,8.1,6.8,4.1,10.9,2.7c4.1-2.7,8.1-1.4,4.1-9.5c-1.4-2.7-2.7-4.1-4.1-6.8
			c10.9-5.4,19-8.1,13.6-17.6c-5.4-12.2-21.7-14.9-35.3-8.1L137.7,207.2z"/>
		<path fill="#77003C" d="M820.6,72.8c-13.6,6.8-20.4,23.1-13.6,33.9c4.1,9.5,12.2,5.4,23.1-1.4c0,2.7,1.4,4.1,2.7,6.8
			c4.1,8.1,6.8,4.1,10.9,2.7c4.1-2.7,8.1-1.4,4.1-9.5c-2.7-2.7-4.1-4.1-5.4-6.8c10.9-5.4,19-8.1,13.6-17.6
			C850.5,68.7,834.2,66,820.6,72.8L820.6,72.8z"/>
		<path fill="#440029" d="M831.4,112.2c4.1,8.1,6.8,4.1,10.9,2.7c4.1-2.7,8.1-1.4,4.1-9.5c-1.4-2.7-2.7-4.1-4.1-6.8
			c10.9-5.4,19-8.1,13.6-17.6c-5.4-12.2-21.7-14.9-36.7-8.1L831.4,112.2z"/>
	</g>
	<title></title>
	<g>
		<path fill="#E6E6E6" d="M970.3,683.6h-89.6V576.1h89.6c29.6,0,53.7,24.1,53.7,53.7C1024,659.5,999.9,683.6,970.3,683.6
			L970.3,683.6z M916.5,647.8h53.7c9.9,0,17.9-8,17.9-17.9s-8-17.9-17.9-17.9h-53.7V647.8L916.5,647.8z"/>
		<path fill="#E6E6E6" d="M146.2,683.6H56.6c-29.6,0-53.7-24.1-53.7-53.7c0-29.6,24.1-53.7,53.7-53.7h89.6V683.6L146.2,683.6z
			 M56.6,612c-9.9,0-17.9,8-17.9,17.9s8,17.9,17.9,17.9h53.7V612L56.6,612L56.6,612z"/>
		<path fill="#D2D5D7" d="M928.8,468.6H98.1c-10.2,0-16.6,11.2-11.3,20.1l29.2,49c8,13.5,12.3,28.8,12.3,44.5v223.3
			c0,51.5,41.5,93.2,92.7,93.2h37.2c-11.5-23.5-1.5-38.4,42.6-71.7c26.8,35.4,44.5,54.6,46.8,71.7H484
			c-56.3-72.9-62.8-89.8,31.6-161.2c67.1,88.9,97.5,111.9,48.9,161.2h119c-11.5-23.5-1.5-38.4,42.6-71.7
			c26.8,35.4,44.5,54.6,46.8,71.7h33c51.2,0,92.7-41.7,92.7-93.2V582.2c0-15.7,4.2-31,12.3-44.5l29.2-49
			C945.3,479.9,939,468.6,928.8,468.6L928.8,468.6z"/>
		<path fill="#E6E6E6" d="M737.4,1024H271.6c-9.9,0-17.9-8-17.9-17.9c0-9.9,8-17.9,17.9-17.9h465.8c9.9,0,17.9,8,17.9,17.9
			C755.3,1016,747.3,1024,737.4,1024z"/>
		<path fill="#FFFFFF" d="M826.9,576.1H362.5c-9.9,0-17.9-8-17.9-17.9s8-17.9,17.9-17.9h464.5c9.9,0,17.9,8,17.9,17.9
			S836.8,576.1,826.9,576.1z"/>
		<path fill="#EF771D" d="M300.7,957.6c71.1-53.7,53.7-59.6,0-130.7C229.6,880.7,247,886.5,300.7,957.6z"/>
		<path fill="#EF771D" d="M297.2,982.7l-10.8-14.3c-5.4-7.2-10.5-13.7-15.2-19.7c-23.8-30.7-38.2-49.2-35.1-72.2
			c2.9-21.7,21.1-39.2,53.8-63.8l14.3-10.8l10.8,14.3c5.4,7.2,10.5,13.7,15.2,19.7c23.8,30.7,38.2,49.2,35.1,72.2
			c-2.9,21.7-21.1,39.2-53.8,63.8L297.2,982.7z M297.5,852.2c-13.2,10.8-24.9,21.8-25.8,29c-1.1,8.2,11.1,23.8,27.9,45.5
			c1.4,1.8,2.9,3.7,4.4,5.6c13.2-10.8,24.9-21.8,25.8-29c1.1-8.2-11.1-23.8-27.9-45.5C300.4,856,299,854.1,297.5,852.2L297.5,852.2z
			"/>
		<path fill="#F9DA49" d="M515.7,939.7c110.1-83.2,83.2-92.2,0-202.3C405.6,820.5,432.5,829.6,515.7,939.7z"/>
		<path fill="#F9DA49" d="M512.2,964.8l-10.8-14.3c-8.5-11.2-16.3-21.3-23.5-30.6c-35.3-45.5-56.6-72.9-52.4-104.5
			c4-30.2,31-55.7,79.5-92.3l14.3-10.8l10.8,14.3c8.5,11.2,16.3,21.3,23.5,30.6c35.3,45.5,56.6,72.9,52.4,104.5
			c-4,30.2-31,55.7-79.5,92.3L512.2,964.8z M512.3,762.5c-29.8,23.4-49.4,42.4-51.4,57.6c-2.2,16.7,15.6,39.7,45.2,77.8
			c4.1,5.2,8.4,10.8,12.9,16.6c29.8-23.4,49.4-42.4,51.4-57.6c2.2-16.7-15.6-39.7-45.2-77.8C521.1,773.9,516.8,768.4,512.3,762.5
			L512.3,762.5z"/>
		<path fill="#EF771D" d="M726.1,826.9c-71.1,53.7-53.7,59.6,0,130.7C797.3,903.9,779.9,898,726.1,826.9z"/>
		<path fill="#EF771D" d="M722.7,982.7l-10.8-14.3c-5.4-7.2-10.5-13.7-15.2-19.7c-23.8-30.7-38.2-49.2-35.1-72.2
			c2.9-21.7,21.1-39.2,53.8-63.8l14.3-10.8l10.8,14.3c5.4,7.2,10.5,13.7,15.2,19.7c23.8,30.7,38.2,49.2,35.1,72.2
			c-2.9,21.7-21.1,39.2-53.8,63.8L722.7,982.7L722.7,982.7z M722.9,852.2c-13.2,10.8-24.9,21.8-25.8,29
			c-1.1,8.2,11.1,23.8,27.9,45.5c1.4,1.8,2.9,3.7,4.4,5.6c13.2-10.8,24.9-21.8,25.8-29c1.1-8.2-11.1-23.8-27.9-45.5
			C725.9,856,724.4,854.1,722.9,852.2z"/>
		<path fill="#FFFFFF" d="M286.4,576.1h-86.5c-9.9,0-17.9-8-17.9-17.9s8-17.9,17.9-17.9h86.5c9.9,0,17.9,8,17.9,17.9
			S296.3,576.1,286.4,576.1z"/>
	</g>
</g>
</svg>
