<?xml version="1.0" encoding="utf-8"?>
<!-- Generator: Adobe Illustrator 21.1.0, SVG Export Plug-In . SVG Version: 6.00 Build 0)  -->
<svg version="1.1" id="Layer_1" xmlns="http://www.w3.org/2000/svg" xmlns:xlink="http://www.w3.org/1999/xlink" x="0px" y="0px"
	 viewBox="0 0 1024 1024" enable-background="new 0 0 1024 1024" xml:space="preserve">
<title></title>
<g id="icomoon-ignore">
</g>
<g>
	<path fill="#887A58" d="M518.7,851.6c0,3.7-3,6.7-6.7,6.7l0,0c-3.7,0-6.7-3-6.7-6.7v-572c0-3.7,3-6.7,6.7-6.7l0,0
		c3.7,0,6.7,3,6.7,6.7V851.6z"/>
	<path fill="#887A58" d="M538.3,870.4c0,14.5-11.8,26.3-26.3,26.3s-26.3-11.8-26.3-26.3c0-14.5,11.8-26.3,26.3-26.3
		C526.5,844.1,538.3,855.9,538.3,870.4z"/>
	<path fill="#887A58" d="M512.2,127.2c-27.8,13.6-48.9,75-48.9,104.3s21.1,53.6,48.9,58.8V127.2z"/>
	<path fill="#988B68" d="M511.8,127.2c27.8,13.6,48.8,75,48.8,104.3s-21.1,53.6-48.8,58.8L511.8,127.2L511.8,127.2z"/>
	<path fill="#887A58" d="M635.1,310.2c-29.3-10-87.6,18.6-108.4,39.3c-20.7,20.7-23,52.8-7,76.1L635.1,310.2L635.1,310.2z"/>
	<path fill="#988B68" d="M634.8,309.8c10,29.3-18.6,87.6-39.2,108.3c-20.7,20.7-52.8,23-76.1,7L634.8,309.8L634.8,309.8z"/>
	<path fill="#887A58" d="M635.1,445.6c-29.3-10-87.6,18.5-108.4,39.3c-20.7,20.7-23,52.8-7,76.1L635.1,445.6L635.1,445.6z"/>
	<path fill="#988B68" d="M634.8,445.3c10,29.3-18.6,87.6-39.2,108.3c-20.7,20.7-52.8,23-76.1,7L634.8,445.3L634.8,445.3z"/>
	<path fill="#887A58" d="M635.1,581.1c-29.3-10-87.6,18.5-108.4,39.2c-20.7,20.7-23,52.8-7,76.1L635.1,581.1L635.1,581.1z"/>
	<path fill="#988B68" d="M634.8,580.8c10,29.3-18.6,87.6-39.2,108.3c-20.7,20.7-52.8,23-76.1,7L634.8,580.8L634.8,580.8z"/>
	<path fill="#887A58" d="M614.5,737.1c-24.1-8.2-72.1,15.3-89.1,32.3c-17,17-18.9,43.4-5.8,62.6L614.5,737.1L614.5,737.1z"/>
	<path fill="#988B68" d="M614.3,736.8c8.2,24.1-15.2,72-32.3,89.1c-17,17-43.4,18.9-62.6,5.8L614.3,736.8z"/>
	<path fill="#887A58" d="M388.9,310.2c29.3-10,87.6,18.6,108.4,39.3c20.7,20.7,23,52.8,7,76.1L388.9,310.2L388.9,310.2z"/>
	<path fill="#988B68" d="M389.2,309.8c-10,29.3,18.5,87.6,39.2,108.3c20.7,20.7,52.8,23,76.1,7L389.2,309.8L389.2,309.8z"/>
	<path fill="#887A58" d="M388.9,445.6c29.3-10,87.6,18.5,108.4,39.3c20.7,20.7,23,52.8,7,76.1L388.9,445.6L388.9,445.6z"/>
	<path fill="#988B68" d="M389.2,445.3c-10,29.3,18.5,87.6,39.2,108.3c20.7,20.7,52.8,23,76.1,7L389.2,445.3L389.2,445.3z"/>
	<path fill="#887A58" d="M388.9,581.1c29.3-10,87.6,18.5,108.4,39.2c20.7,20.7,23,52.8,7,76.1L388.9,581.1L388.9,581.1z"/>
	<path fill="#988B68" d="M389.2,580.8c-10,29.3,18.5,87.6,39.2,108.3c20.7,20.7,52.8,23,76.1,7L389.2,580.8L389.2,580.8z"/>
	<path fill="#887A58" d="M409.4,737.1c24.1-8.2,72.1,15.3,89.1,32.3c17,17,18.9,43.4,5.8,62.6L409.4,737.1L409.4,737.1z"/>
	<path fill="#887A58" d="M409.7,736.8c-8.2,24.1,15.2,72,32.3,89.1c17,17,43.4,18.9,62.6,5.8L409.7,736.8L409.7,736.8z"/>
</g>
<g>
	<circle fill="none" stroke="#F6F7F5" stroke-width="25" stroke-miterlimit="10" cx="512" cy="512" r="494.2"/>
	
		<rect x="6" y="499" transform="matrix(0.7069 -0.7073 0.7073 0.7069 -212.0607 506.8299)" fill="#FFFFFF" width="999" height="20.5"/>
</g>
</svg>
