<?xml version="1.0" encoding="utf-8"?>
<!-- Generator: Adobe Illustrator 21.1.0, SVG Export Plug-In . SVG Version: 6.00 Build 0)  -->
<svg version="1.1" id="Layer_1" xmlns="http://www.w3.org/2000/svg" xmlns:xlink="http://www.w3.org/1999/xlink" x="0px" y="0px"
	 viewBox="0 0 1024 1024" style="enable-background:new 0 0 1024 1024;" xml:space="preserve">
<style type="text/css">
	.st0{fill:#5A5D6F;}
	.st1{fill:#ABB9D3;}
	.st2{fill:#6F7588;}
	.st3{fill:#444455;}
	.st4{fill:#E1EAF6;}
	.st5{fill:#929CB4;}
	.st6{fill:#D4DEED;}
	.st7{fill:#E0E0E0;}
	.st8{fill:#BDBDBD;}
	.st9{fill:#E6E6E6;}
</style>
<title></title>
<g id="icomoon-ignore">
</g>
<g>
	<path class="st0" d="M94.3,829.8H69.1c-8.9,0-16.1-7.2-16.1-16.1v-36.8h70.6l-14,41.9C107.4,825.4,101.2,829.8,94.3,829.8z"/>
	<path class="st0" d="M929.7,829.8h25.2c8.9,0,16.1-7.2,16.1-16.1v-36.8h-70.6l14,41.9C916.6,825.4,922.8,829.8,929.7,829.8z"/>
	<path class="st1" d="M971,794.5H53c-29.3,0-53-23.7-53-53V247.2c0-29.3,23.7-53,53-53h918c29.3,0,53,23.7,53,53v494.3
		C1024,770.8,1000.3,794.5,971,794.5z"/>
	<path class="st2" d="M812.1,794.5H53c-29.3,0-53-23.7-53-53V247.2c0-29.3,23.7-53,53-53h759.2c9.8,0,17.7,7.9,17.7,17.7v565
		C829.8,786.6,821.9,794.5,812.1,794.5z"/>
	<path class="st1" d="M759.2,741.5L759.2,741.5c9.8,0,17.7-7.9,17.7-17.7v-459c0-9.8-7.9-17.7-17.7-17.7l0,0
		c-9.8,0-17.7,7.9-17.7,17.7v459C741.5,733.6,749.4,741.5,759.2,741.5z"/>
	<path class="st3" d="M70.6,741.5h600.3c9.8,0,17.7-7.9,17.7-17.7v-459c0-9.8-7.9-17.7-17.7-17.7H70.6c-9.8,0-17.7,7.9-17.7,17.7
		v459C53,733.6,60.9,741.5,70.6,741.5z"/>
	<path class="st4" d="M971,556.1c0,24.4-19.8,44.1-44.1,44.1s-44.1-19.8-44.1-44.1s19.8-44.1,44.1-44.1S971,531.8,971,556.1z"/>
	<path class="st5" d="M971,300.1h-88.3c-9.8,0-17.7-7.9-17.7-17.7l0,0c0-9.8,7.9-17.7,17.7-17.7H971c9.8,0,17.7,7.9,17.7,17.7l0,0
		C988.7,292.2,980.8,300.1,971,300.1z"/>
	<path class="st2" d="M882.8,300.1L882.8,300.1c-9.8,0-17.7-7.9-17.7-17.7l0,0c0-9.8,7.9-17.7,17.7-17.7l0,0
		c9.8,0,17.7,7.9,17.7,17.7l0,0C900.4,292.2,892.5,300.1,882.8,300.1z"/>
	<path class="st2" d="M971,300.1L971,300.1c-9.8,0-17.7-7.9-17.7-17.7l0,0c0-9.8,7.9-17.7,17.7-17.7l0,0c9.8,0,17.7,7.9,17.7,17.7
		l0,0C988.7,292.2,980.8,300.1,971,300.1z"/>
	<path class="st5" d="M971,370.8h-88.3c-9.8,0-17.7-7.9-17.7-17.7l0,0c0-9.8,7.9-17.7,17.7-17.7H971c9.8,0,17.7,7.9,17.7,17.7l0,0
		C988.7,362.9,980.8,370.8,971,370.8z"/>
	<path class="st2" d="M882.8,370.8L882.8,370.8c-9.8,0-17.7-7.9-17.7-17.7l0,0c0-9.8,7.9-17.7,17.7-17.7l0,0
		c9.8,0,17.7,7.9,17.7,17.7l0,0C900.4,362.9,892.5,370.8,882.8,370.8z"/>
	<path class="st2" d="M971,370.8L971,370.8c-9.8,0-17.7-7.9-17.7-17.7l0,0c0-9.8,7.9-17.7,17.7-17.7l0,0c9.8,0,17.7,7.9,17.7,17.7
		l0,0C988.7,362.9,980.8,370.8,971,370.8z"/>
	<path class="st5" d="M971,441.4h-88.3c-9.8,0-17.7-7.9-17.7-17.7l0,0c0-9.8,7.9-17.7,17.7-17.7H971c9.8,0,17.7,7.9,17.7,17.7l0,0
		C988.7,433.5,980.8,441.4,971,441.4z"/>
	<path class="st2" d="M882.8,441.4L882.8,441.4c-9.8,0-17.7-7.9-17.7-17.7l0,0c0-9.8,7.9-17.7,17.7-17.7l0,0
		c9.8,0,17.7,7.9,17.7,17.7l0,0C900.4,433.5,892.5,441.4,882.8,441.4z"/>
	<path class="st2" d="M971,441.4L971,441.4c-9.8,0-17.7-7.9-17.7-17.7l0,0c0-9.8,7.9-17.7,17.7-17.7l0,0c9.8,0,17.7,7.9,17.7,17.7
		l0,0C988.7,433.5,980.8,441.4,971,441.4z"/>
	<path class="st6" d="M970.6,560c-4.3-2.4-9.1-3.9-14.3-3.9c-16.2,0-29.4,13.2-29.4,29.4c0,5.2,1.5,10.1,3.9,14.3
		C952,598,968.8,581.2,970.6,560L970.6,560z"/>
	<path class="st4" d="M971,679.7c0,24.4-19.8,44.1-44.1,44.1s-44.1-19.8-44.1-44.1s19.8-44.1,44.1-44.1S971,655.3,971,679.7z"/>
	<path class="st6" d="M923,723.5c2.4-4.3,3.9-9.1,3.9-14.3c0-16.3-13.2-29.4-29.4-29.4c-5.2,0-10.1,1.5-14.3,3.9
		C885,704.8,901.8,721.6,923,723.5L923,723.5z"/>
</g>
<g>
	<title></title>
	<g id="icomoon-ignore_1_">
	</g>
	<path class="st7" d="M587.9,580.8l-41.5,67.5c-6.5,10.1-21.3,18.8-33.2,18.8H230.8c-11.9,0-26.7-8.7-33.2-18.8l-41.5-67.1
		L587.9,580.8L587.9,580.8z"/>
	<path class="st8" d="M592,566c4,0,7.2,4,7.2,7.9c0,2.2-0.7,3.3-2.2,4.7s-3.3,1.8-5.1,1.8H151.8c-4,0-7.2-2.5-7.2-6.5
		c0-1.8,0.7-4.3,2.2-5.4c1.5-1.5,3.3-2.5,5.1-2.5L592,566L592,566z"/>
	<g>
		<path class="st9" d="M371.5,533.1c-2,0-3.9-0.8-5.4-2.3c-10.2-10.2-15.8-23.7-15.8-38c0-14.4,5.6-27.9,15.8-38.1
			c7.3-7.3,11.3-16.9,11.3-27.2s-4-19.9-11.3-27.2c-3-3-3-7.9,0-10.9c3-3,7.9-3,10.9,0c10.2,10.2,15.8,23.7,15.8,38
			c0,14.4-5.6,27.9-15.8,38.1c-7.3,7.3-11.3,16.9-11.3,27.2c0,10.3,4,19.9,11.3,27.2c3,3,3,7.9,0,10.9
			C375.4,532.3,373.4,533.1,371.5,533.1L371.5,533.1z"/>
		<path class="st9" d="M466.7,533.1c-2,0-3.9-0.8-5.4-2.3c-10.2-10.2-15.8-23.7-15.8-38c0-14.4,5.6-27.9,15.8-38.1
			c7.3-7.3,11.3-16.9,11.3-27.2s-4-19.9-11.3-27.2c-3-3-3-7.9,0-10.9c3-3,7.9-3,10.9,0c10.2,10.2,15.8,23.7,15.8,38
			c0,14.4-5.6,27.9-15.8,38.1c-7.3,7.3-11.3,16.9-11.3,27.2c0,10.3,4,19.9,11.3,27.2c3,3,3,7.9,0,10.9
			C470.7,532.3,468.7,533.1,466.7,533.1L466.7,533.1z"/>
		<path class="st9" d="M277.4,533.1c-2,0-3.9-0.8-5.4-2.3c-10.2-10.2-15.8-23.7-15.8-38c0-14.4,5.6-27.9,15.8-38.1
			c7.3-7.3,11.3-16.9,11.3-27.2c0-10.3-4-19.9-11.3-27.2c-3-3-3-7.9,0-10.9s7.9-3,10.9,0c10.2,10.2,15.8,23.7,15.8,38
			c0,14.4-5.6,27.9-15.8,38.1c-7.3,7.3-11.3,16.9-11.3,27.2c0,10.3,4,19.9,11.3,27.2c3,3,3,7.9,0,10.9
			C281.3,532.3,279.3,533.1,277.4,533.1L277.4,533.1z"/>
	</g>
</g>
</svg>
