<?xml version="1.0" encoding="utf-8"?>
<!-- Generator: Adobe Illustrator 21.1.0, SVG Export Plug-In . SVG Version: 6.00 Build 0)  -->
<svg version="1.1" id="Layer_1" xmlns="http://www.w3.org/2000/svg" xmlns:xlink="http://www.w3.org/1999/xlink" x="0px" y="0px"
	 viewBox="0 0 1024 1024" enable-background="new 0 0 1024 1024" xml:space="preserve">
<g>
	<g>
		<polygon fill="#F2F2F2" points="791.4,507.2 791.4,671.5 649.1,753.6 649.1,589.3 		"/>
		<polygon fill="#F2F2F2" points="506.9,671.5 506.9,507.2 649.1,589.3 649.1,753.6 		"/>
		<polygon fill="#E1E1E1" points="791.4,507.2 649.1,425.1 506.9,507.2 649.1,589.3 		"/>
	</g>
	<g>
		<polygon fill="#F2F2F2" points="506.9,507.2 506.9,671.5 364.6,753.6 364.6,589.3 		"/>
		<polygon fill="#E1E1E1" points="222.3,671.5 222.3,507.2 364.6,589.3 364.6,753.6 		"/>
		<polygon fill="#F2F2F2" points="506.9,507.2 364.6,425.1 222.3,507.2 364.6,589.3 		"/>
	</g>
	<g>
		<polygon fill="#F2F2F2" points="649.1,352.5 649.1,516.8 506.9,598.9 506.9,434.7 		"/>
		<polygon fill="#F2F2F2" points="364.6,516.8 364.6,352.5 506.9,434.7 506.9,598.9 		"/>
		<polygon fill="#E1E1E1" points="649.1,352.5 506.9,270.4 364.6,352.5 506.9,434.7 		"/>
	</g>
</g>
<g>
	<circle fill="none" stroke="#F6F7F5" stroke-width="25" stroke-miterlimit="10" cx="512" cy="512" r="499.7"/>
	
		<rect x="0.3" y="498.9" transform="matrix(0.7069 -0.7073 0.7073 0.7069 -212.0605 506.7699)" fill="#FFFFFF" width="1010.2" height="20.7"/>
</g>
</svg>
