<?xml version="1.0" encoding="utf-8"?>
<!-- Generator: Adobe Illustrator 21.1.0, SVG Export Plug-In . SVG Version: 6.00 Build 0)  -->
<svg version="1.1" id="Layer_1" xmlns="http://www.w3.org/2000/svg" xmlns:xlink="http://www.w3.org/1999/xlink" x="0px" y="0px"
	 viewBox="0 0 1024 1024" enable-background="new 0 0 1024 1024" xml:space="preserve">
<title></title>
<g id="icomoon-ignore">
</g>
<g>
	<circle fill="none" stroke="#F6F7F5" stroke-width="25" stroke-miterlimit="10" cx="512" cy="512" r="499.7"/>
</g>
<title></title>
<g id="icomoon-ignore_1_">
</g>
<g>
	<path fill="#E95353" d="M667.3,243.1c-121.1-69.9-291-3.2-378.8,148.8c-68.7,119-69.1,258.8-0.9,348.2c0.8,1.1,1.7,1.9,2.9,2.5
		c4.5,2.6,10.4,1.1,13.1-3.6c0.4-0.8,0.8-1.6,1-2.4c7.5-22,18.3-45.1,30.8-66.9c23.5-40.7,52.2-75,80.9-96.8
		c28.7-21.7,53.9-28.2,71.1-18.3c17.2,9.9,24.2,35.1,19.7,70.8s-19.9,77.8-43.3,118.4c-12.7,22-27.6,43-43,60.7
		c-2.4,2.7-3,6.4-1.8,9.7c0.8,2.1,2.2,3.8,4.1,4.9c1.1,0.6,2.3,1,3.5,1.2c111.4,14.4,232.5-55.9,301.1-174.8
		C815.5,493.5,788.3,313,667.3,243.1L667.3,243.1z"/>
	<path fill="#F96969" d="M517.1,503.2c-4.9-2.8-11.2-1.1-14,3.7l-25.4,44c3.5,0.7,6.7,2,9.7,3.7c3,1.7,5.7,4,8,6.6l25.4-44
		C523.6,512.3,522,506.1,517.1,503.2L517.1,503.2z"/>
	<path fill="#F96969" d="M567.5,569.7c-1.5-0.9-2.9-2.2-3.8-3.9c-2.8-4.9-1-11.2,3.9-14c17.5-9.8,32.4-24.6,43-42.9
		c21.7-37.6,21-82.4-1.7-111.5c-3.5-4.4-2.7-10.9,1.8-14.4s10.9-2.7,14.4,1.8c27.7,35.7,29.2,89.7,3.4,134.4
		c-12.5,21.6-30,39.1-50.7,50.7C574.3,571.6,570.5,571.4,567.5,569.7L567.5,569.7z"/>
	<path fill="#F96969" d="M433.6,494.2c-3-1.7-5-4.9-5.1-8.6c-0.8-24.4,5.6-49.1,18.4-71.2c25.5-44.2,72.6-70.1,117.1-64.5
		c5.6,0.7,9.6,5.9,8.9,11.5c-0.7,5.6-5.9,9.6-11.5,8.9c-36.4-4.7-75.2,17.3-96.6,54.4c-10.9,18.9-16.3,39.8-15.7,60.3
		c0.2,5.7-4.3,10.4-10,10.6C437,495.6,435.1,495.1,433.6,494.2L433.6,494.2z"/>
	<path fill="#F96969" d="M527.3,655.3c-2.7-1.6-4.7-4.3-5.1-7.7c-0.7-5.6,3.3-10.7,8.9-11.4c54.1-6.5,104.8-42.1,135.4-95.1
		c35.8-62,36.8-135.6,2.5-187.4c-3.1-4.7-1.9-11.1,2.9-14.2s11.1-1.9,14.2,2.9c38.6,58.2,37.8,140.3-1.8,208.9
		c-33.8,58.6-90.1,97.9-150.7,105.1C531.3,656.9,529.1,656.4,527.3,655.3z"/>
	<path fill="#F96969" d="M387.3,409.9c-4.6-2.7-6.5-8.5-4.1-13.4c2.4-4.9,4.9-9.8,7.6-14.5c38.5-66.6,107.3-108.4,175.2-106.3
		c5.7,0.1,10.1,4.9,9.9,10.6c-0.1,5.7-4.9,10.1-10.6,9.9c-60.5-1.8-122.1,35.8-156.8,96c-2.5,4.3-4.8,8.7-7,13.2
		c-2.5,5.1-8.6,7.2-13.7,4.7C387.7,410.1,387.5,410,387.3,409.9L387.3,409.9z"/>
	<path fill="#F96969" d="M378.7,568.1c-1.9-1.1-3.4-2.8-4.4-5c-16.1-39.1-18-85.1-5.3-129.5c1.5-5.5,7.2-8.7,12.6-7
		c5.5,1.5,8.7,7.2,7,12.6c-11.4,40-9.8,81.2,4.5,116.1c2.1,5.3-0.3,11.2-5.6,13.4C384.6,569.9,381.3,569.6,378.7,568.1z"/>
	<path fill="#F96969" d="M319.7,639.6c-1.5-0.9-2.8-2.1-3.7-3.7c-26.2-45.1-37.6-101.3-32.5-158.2c0.5-5.6,5.6-9.8,11.1-9.3
		c5.6,0.5,9.8,5.6,9.3,11.1c-4.9,52.7,5.7,104.6,29.8,146c2.8,4.9,1.2,11.2-3.7,14C326.8,641.5,322.8,641.3,319.7,639.6z"/>
	<path fill="#F96969" d="M499,741.8c-3-1.7-5.1-5-5.1-8.8c-0.1-5.7,4.5-10.3,10.2-10.4c47.6-0.4,97.2-17.4,140-47.8
		c4.6-3.3,11.1-2.2,14.3,2.4c3.3,4.6,2.2,11.1-2.4,14.3c-46.8,33.3-99.3,51.2-151.7,51.6C502.3,743.1,500.5,742.7,499,741.8
		L499,741.8z"/>
	<path fill="#F96969" d="M553.3,436.9c-4.9-2.8-6.5-9.1-3.7-14l74.2-128.5c2.8-4.9,9.1-6.5,14-3.7c4.9,2.8,6.5,9.1,3.7,14
		l-74.2,128.5C564.5,438.1,558.2,439.8,553.3,436.9z"/>
	<path fill="#F96969" d="M728.2,296.8c-5-6.5-10.3-12.7-16-18.6l-74,9.6l-25-66.3c-7.8-1.9-15.6-3.4-23.6-4.3l32.2,85.5
		c0.9,2.3,2.5,4.1,4.4,5.3c1.9,1.1,4.1,1.6,6.4,1.3L728.2,296.8L728.2,296.8z"/>
	<path fill="#C13636" d="M567.8,488.9c-12.1,21-38.5,33.2-56.3,22.9c-17.9-10.3-20.4-39.3-8.3-60.2c12.1-21,38.5-33.2,56.3-22.9
		C577.4,439,579.9,467.9,567.8,488.9L567.8,488.9z"/>
	<path opacity="0.15" fill="#202020" enable-background="new    " d="M306.3,402.1C391.9,253.9,555.6,186.8,676,248.4
		c-2.9-1.9-5.8-3.6-8.7-5.3c-121.1-69.9-291-3.2-378.8,148.8c-68.7,119-69.1,258.8-0.9,348.2c0.8,1.1,1.7,1.9,2.9,2.5
		c3,1.7,6.5,1.6,9.3,0.1C237.3,653.1,239.5,517.7,306.3,402.1L306.3,402.1z"/>
	<path opacity="0.15" fill="#202020" enable-background="new    " d="M438.5,814.8c15.4-17.6,30.3-38.6,43-60.7
		c23.5-40.7,38.8-82.7,43.3-118.4c3.6-28.6-0.2-50.5-10.7-63.1c0.5,0.1,1,0.2,1.4,0.3c-2.4-2.7-5.1-4.8-8.1-6.6
		c-3.4-2-7.1-3.3-11.2-3.9c10.5,12.6,14.2,34.5,10.7,63.1c-4.5,35.7-19.9,77.8-43.3,118.4c-12.7,22-27.6,43-43,60.7
		c-2.4,2.7-3,6.4-1.8,9.7c0.8,2.1,2.2,3.8,4.1,4.9c1.1,0.6,2.3,1,3.5,1.2c3.1,0.4,6.3,0.7,9.4,1C436.2,818.9,437,816.7,438.5,814.8
		L438.5,814.8z"/>
</g>
</svg>
